<?xml version="1.0" encoding="UTF-8" standalone="no"?>
<!-- Created with Inkscape (http://www.inkscape.org/) -->

<svg
   width="512"
   height="512"
   viewBox="0 0 512 512"
   version="1.1"
   id="svg5"
   inkscape:version="1.2.2 (b0a8486541, 2022-12-01)"
   sodipodi:docname="logo.svg"
   xmlns:inkscape="http://www.inkscape.org/namespaces/inkscape"
   xmlns:sodipodi="http://sodipodi.sourceforge.net/DTD/sodipodi-0.dtd"
   xmlns="http://www.w3.org/2000/svg"
   xmlns:svg="http://www.w3.org/2000/svg">
  <sodipodi:namedview
     id="namedview7"
     pagecolor="#ffffff"
     bordercolor="#000000"
     borderopacity="0.25"
     inkscape:showpageshadow="2"
     inkscape:pageopacity="0.0"
     inkscape:pagecheckerboard="true"
     inkscape:deskcolor="#d1d1d1"
     inkscape:document-units="px"
     showgrid="true"
     inkscape:zoom="1.84375"
     inkscape:cx="244.0678"
     inkscape:cy="266.84746"
     inkscape:window-width="1916"
     inkscape:window-height="1143"
     inkscape:window-x="0"
     inkscape:window-y="0"
     inkscape:window-maximized="0"
     inkscape:current-layer="layer1">
    <inkscape:grid
       type="xygrid"
       id="grid132"
       empspacing="4"
       spacingx="16"
       spacingy="16" />
  </sodipodi:namedview>
  <defs
     id="defs2" />
  <g
     inkscape:label="Layer 1"
     inkscape:groupmode="layer"
     id="layer1">
    <path
       style="fill:#000000;stroke-width:4;stroke-linecap:round;stroke-linejoin:bevel;stroke-opacity:1;stroke:#fcfcfc;stroke-dasharray:none"
       d="m 112,64 h 32 l 16,16 -16,16 H 112 L 96,80 Z"
       id="path301" />
    <path
       style="fill:#000000;stroke:#fcfcfc;stroke-width:4;stroke-linecap:round;stroke-linejoin:bevel;stroke-dasharray:none;stroke-opacity:1"
       d="m 112,16 h 32 l 16,16 -16,16 H 112 L 96,32 Z"
       id="path301-6" />
    <path
       style="fill:#000000;stroke-width:4;stroke-linecap:round;stroke-linejoin:bevel;stroke-opacity:1;stroke:#fcfcfc;stroke-dasharray:none"
       d="m 160,144 h 32 l 16,16 -16,16 h -32 l -16,-16 z"
       id="path301-3" />
    <path
       style="fill:#000000;stroke-width:4;stroke-linecap:round;stroke-linejoin:bevel;stroke-opacity:1;stroke:#fcfcfc;stroke-dasharray:none"
       d="m 368,64 h 32 l 16,16 -16,16 H 368 L 352,80 Z"
       id="path301-3-7" />
    <path
       style="fill:#000000;stroke:#fcfcfc;stroke-width:4;stroke-linecap:round;stroke-linejoin:bevel;stroke-dasharray:none;stroke-opacity:1"
       d="m 368,16 h 32 l 16,16 -16,16 H 368 L 352,32 Z"
       id="path301-3-7-2" />
    <path
       style="fill:#000000;stroke-width:4;stroke-linecap:round;stroke-linejoin:bevel;stroke-opacity:1;stroke:#fcfcfc;stroke-dasharray:none"
       d="m 368,112 h 32 l 16,16 -16,16 h -32 l -16,-16 z"
       id="path301-3-7-5" />
    <path
       style="fill:#000000;stroke-width:4;stroke-linecap:round;stroke-linejoin:bevel;stroke-opacity:1;stroke:#fcfcfc;stroke-dasharray:none"
       d="m 320,144 h 32 l 16,16 -16,16 h -32 l -16,-16 z"
       id="path301-3-7-5-3" />
    <path
       style="fill:#000000;stroke-width:4;stroke-linecap:round;stroke-linejoin:bevel;stroke-opacity:1;stroke:#fcfcfc;stroke-dasharray:none"
       d="m 240,144 h 32 l 16,16 -16,16 h -32 l -16,-16 z"
       id="path301-3-7-5-3-5" />
    <path
       style="fill:#000000;stroke-width:4;stroke-linecap:round;stroke-linejoin:bevel;stroke-opacity:1;stroke:#fcfcfc;stroke-dasharray:none"
       d="m 160,336 h 32 l 16,16 -16,16 h -32 l -16,-16 z"
       id="path301-3-1" />
    <path
       style="fill:#000000;stroke-width:4;stroke-linecap:round;stroke-linejoin:bevel;stroke-opacity:1;stroke:#fcfcfc;stroke-dasharray:none"
       d="m 320,336 h 32 l 16,16 -16,16 h -32 l -16,-16 z"
       id="path301-3-7-5-3-2" />
    <path
       style="fill:#000000;stroke-width:4;stroke-linecap:round;stroke-linejoin:bevel;stroke-opacity:1;stroke:#fcfcfc;stroke-dasharray:none"
       d="m 240,336 h 32 l 16,16 -16,16 h -32 l -16,-16 z"
       id="path301-3-7-5-3-5-7" />
    <path
       style="fill:#000000;stroke-width:4;stroke-linecap:round;stroke-linejoin:bevel;stroke-opacity:1;stroke:#fcfcfc;stroke-dasharray:none"
       d="m 240,192 h 32 l 16,16 -16,16 h -32 l -16,-16 z"
       id="path301-3-7-5-3-5-6" />
    <path
       style="fill:#000000;stroke-width:4;stroke-linecap:round;stroke-linejoin:bevel;stroke-opacity:1;stroke:#fcfcfc;stroke-dasharray:none"
       d="m 240,240 h 32 l 16,16 -16,16 h -32 l -16,-16 z"
       id="path301-3-7-5-3-5-6-2" />
    <path
       style="fill:#000000;stroke-width:4;stroke-linecap:round;stroke-linejoin:bevel;stroke-opacity:1;stroke:#fcfcfc;stroke-dasharray:none"
       d="m 240,288 h 32 l 16,16 -16,16 h -32 l -16,-16 z"
       id="path301-3-7-5-3-5-6-2-9" />
    <path
       style="fill:#000000;stroke-width:4;stroke-linecap:round;stroke-linejoin:bevel;stroke-opacity:1;stroke:#fcfcfc;stroke-dasharray:none"
       d="m 112,112 h 32 l 16,16 -16,16 H 112 L 96,128 Z"
       id="path301-3-6" />
    <path
       style="fill:#000000;stroke-width:4;stroke-linecap:round;stroke-linejoin:bevel;stroke-opacity:1;stroke:#fcfcfc;stroke-dasharray:none"
       d="m 112,368 h 32 l 16,16 -16,16 H 112 L 96,384 Z"
       id="path301-0" />
    <path
       style="fill:#000000;stroke-width:4;stroke-linecap:round;stroke-linejoin:bevel;stroke-opacity:1;stroke:#fcfcfc;stroke-dasharray:none"
       d="m 368,368 h 32 l 16,16 -16,16 h -32 l -16,-16 z"
       id="path301-3-7-9" />
    <path
       style="fill:#000000;stroke-width:4;stroke-linecap:round;stroke-linejoin:bevel;stroke-opacity:1;stroke:#fcfcfc;stroke-dasharray:none"
       d="m 368,416 h 32 l 16,16 -16,16 h -32 l -16,-16 z"
       id="path301-3-7-5-36" />
    <path
       style="fill:#000000;stroke:#fcfcfc;stroke-width:4;stroke-linecap:round;stroke-linejoin:bevel;stroke-dasharray:none;stroke-opacity:1"
       d="m 368,464 h 32 l 16,16 -16,16 h -32 l -16,-16 z"
       id="path301-3-7-5-36-6" />
    <path
       style="fill:#000000;stroke-width:4;stroke-linecap:round;stroke-linejoin:bevel;stroke-opacity:1;stroke:#fcfcfc;stroke-dasharray:none"
       d="m 112,416 h 32 l 16,16 -16,16 H 112 L 96,432 Z"
       id="path301-3-6-0" />
    <path
       style="fill:#000000;stroke:#fcfcfc;stroke-width:4;stroke-linecap:round;stroke-linejoin:bevel;stroke-dasharray:none;stroke-opacity:1"
       d="m 112,464 h 32 l 16,16 -16,16 H 112 L 96,480 Z"
       id="path301-3-6-0-1" />
  </g>
</svg>
